<?xml version="1.0" encoding="UTF-8"?>
<!DOCTYPE svg PUBLIC "-//W3C//DTD SVG 1.1//EN" "http://www.w3.org/Graphics/SVG/1.1/DTD/svg11.dtd">
<!-- Creator: CorelDRAW X8 -->
<svg xmlns="http://www.w3.org/2000/svg" xml:space="preserve" width="88.9mm" height="88.9mm" version="1.1" style="shape-rendering:geometricPrecision; text-rendering:geometricPrecision; image-rendering:optimizeQuality; fill-rule:evenodd; clip-rule:evenodd"
viewBox="0 0 837 837"
 xmlns:xlink="http://www.w3.org/1999/xlink">
 <defs>
  <style type="text/css">
   <![CDATA[
    .fil2 {fill:none}
    .fil1 {fill:white}
    .fil4 {fill:black;fill-rule:nonzero}
    .fil3 {fill:#2E4678;fill-rule:nonzero}
    .fil0 {fill:url(#id1)}
   ]]>
  </style>
    <clipPath id="id0">
     <path d="M419 0c231,0 418,187 418,419 0,231 -187,418 -418,418 -232,0 -419,-187 -419,-418 0,-232 187,-419 419,-419z"/>
    </clipPath>
  <linearGradient id="id1" gradientUnits="userSpaceOnUse" x1="-0" y1="418.641" x2="837.283" y2="418.641">
   <stop offset="0" style="stop-opacity:1; stop-color:red"/>
   <stop offset="1" style="stop-opacity:1; stop-color:#FF0055"/>
  </linearGradient>
 </defs>
 <g id="Layer_x0020_1">
  <metadata id="CorelCorpID_0Corel-Layer"/>
  <g id="_1495156345664">
   <path class="fil0" d="M419 0c231,0 418,187 418,419 0,231 -187,418 -418,418 -232,0 -419,-187 -419,-418 0,-232 187,-419 419,-419z"/>
   <g style="clip-path:url(#id0)">
    <g>
     <rect class="fil1" x="-359" y="292" width="1555" height="254"/>
    </g>
   </g>
   <path class="fil2" d="M419 0c231,0 418,187 418,419 0,231 -187,418 -418,418 -232,0 -419,-187 -419,-418 0,-232 187,-419 419,-419z"/>
   <path class="fil3" d="M138 335c-4,4 -8,5 -13,5 -5,0 -9,-1 -12,-5 -2,-3 -3,-7 -3,-12 1,-5 3,-9 7,-12 4,-3 9,-5 13,-5 5,0 9,2 12,5 3,3 4,7 3,12 -1,5 -3,9 -7,12zm-41 155c5,0 11,-3 16,-8 11,-11 24,-32 40,-64 2,-4 4,-5 6,-4 0,1 1,2 1,3 0,1 -1,4 -4,9 -2,5 -4,10 -6,14 -2,3 -5,10 -10,19 -5,8 -10,15 -14,20 -12,13 -23,20 -33,20 -10,0 -17,-3 -22,-9 -4,-7 -7,-13 -7,-21 0,-8 2,-16 6,-25l27 -68c0,-2 1,-4 1,-7 0,-3 -2,-6 -6,-11l24 0c6,0 10,1 11,3 1,3 0,6 -3,11l-33 79c-5,10 -7,19 -7,26 0,8 4,13 13,13z"/>
   <path id="1" class="fil4" d="M220 499l0 -173 65 0c12,0 21,1 27,2 8,1 15,4 21,8 6,4 10,9 14,16 3,7 5,15 5,24 0,15 -4,27 -14,37 -9,10 -26,15 -51,15l-44 0 0 71 -23 0zm23 -91l45 0c15,0 25,-3 31,-8 6,-6 10,-13 10,-23 0,-8 -2,-14 -6,-19 -4,-5 -8,-9 -14,-10 -4,-1 -11,-2 -22,-2l-44 0 0 62z"/>
   <path id="2" class="fil4" d="M369 499l0 -125 19 0 0 19c5,-9 10,-15 14,-18 4,-3 8,-4 13,-4 8,0 15,2 22,7l-7 19c-6,-3 -11,-4 -16,-4 -4,0 -9,1 -12,4 -4,3 -7,7 -8,12 -2,7 -4,15 -4,24l0 66 -21 0z"/>
   <path id="3" class="fil4" d="M526 458l22 3c-3,13 -10,23 -19,30 -9,7 -21,10 -36,10 -18,0 -33,-5 -43,-16 -11,-12 -16,-27 -16,-48 0,-21 5,-37 16,-49 11,-11 25,-17 42,-17 17,0 30,6 41,17 10,11 16,27 16,48 0,1 0,3 0,6l-94 0c1,13 5,24 12,31 7,7 16,11 26,11 8,0 15,-2 20,-6 6,-4 10,-11 13,-20zm-69 -34l69 0c-1,-10 -3,-18 -8,-23 -6,-9 -15,-13 -26,-13 -10,0 -18,4 -24,10 -7,7 -11,15 -11,26z"/>
   <path id="4" class="fil4" d="M557 461l21 -3c2,8 5,15 10,19 6,5 13,7 23,7 10,0 17,-2 22,-6 4,-4 7,-8 7,-14 0,-5 -2,-8 -7,-11 -3,-2 -10,-4 -21,-7 -16,-4 -27,-8 -33,-10 -6,-3 -10,-7 -13,-12 -3,-5 -5,-11 -5,-17 0,-6 1,-11 4,-16 2,-4 6,-8 10,-11 4,-3 8,-5 14,-7 5,-1 11,-2 18,-2 10,0 18,1 26,4 7,3 13,7 16,12 4,5 6,11 8,19l-21 3c-1,-6 -4,-12 -8,-15 -5,-4 -11,-6 -19,-6 -10,0 -17,2 -21,5 -4,3 -6,7 -6,11 0,3 0,6 2,8 2,2 5,4 8,5 2,1 9,3 19,6 15,4 25,7 31,10 6,2 11,6 14,11 4,5 5,11 5,18 0,7 -2,14 -6,20 -4,6 -10,11 -18,14 -7,4 -16,5 -26,5 -16,0 -29,-3 -37,-10 -9,-6 -14,-16 -17,-30z"/>
   <path id="5" class="fil4" d="M669 461l21 -3c1,8 4,15 10,19 5,5 13,7 22,7 10,0 17,-2 22,-6 5,-4 7,-8 7,-14 0,-5 -2,-8 -6,-11 -3,-2 -10,-4 -22,-7 -15,-4 -26,-8 -32,-10 -6,-3 -11,-7 -14,-12 -3,-5 -4,-11 -4,-17 0,-6 1,-11 3,-16 3,-4 6,-8 11,-11 3,-3 8,-5 13,-7 6,-1 12,-2 19,-2 9,0 18,1 25,4 8,3 13,7 17,12 3,5 6,11 7,19l-21 3c-1,-6 -3,-12 -8,-15 -4,-4 -11,-6 -19,-6 -10,0 -17,2 -21,5 -4,3 -6,7 -6,11 0,3 1,6 3,8 1,2 4,4 8,5 2,1 8,3 18,6 15,4 26,7 32,10 6,2 10,6 14,11 3,5 5,11 5,18 0,7 -2,14 -6,20 -4,6 -10,11 -18,14 -8,4 -17,5 -27,5 -16,0 -28,-3 -37,-10 -8,-6 -14,-16 -16,-30z"/>
  </g>
 </g>
</svg>
